<?xml version="1.0" encoding="utf-8"?>
<!-- Generator: Adobe Illustrator 21.0.0, SVG Export Plug-In . SVG Version: 6.00 Build 0)  -->
<svg version="1.1" id="图层_1" xmlns="http://www.w3.org/2000/svg" xmlns:xlink="http://www.w3.org/1999/xlink" x="0px" y="0px"
	 viewBox="0 0 129.4 129.2" style="enable-background:new 0 0 129.4 129.2;" xml:space="preserve">
<style type="text/css">
	.st0{fill:#FEFEFE;}
	.st1{fill:#0075A9;}
	.st2{fill:#FED300;}
	.st3{fill:#187D90;}
	.st4{fill:#FDDA29;}
	.st5{fill:#FCDB30;}
	.st6{fill:#0B789D;}
	.st7{fill:#0B789E;}
	.st8{fill:#157C94;}
	.st9{fill:#167C92;}
</style>
<g>
	<path class="st0" d="M64.7,129.1c-21.2,0-42.4,0-63.6,0c-0.8,0-1.1-0.1-1.1-1.1C0,85.8,0,43.4,0,1.1C0,0.2,0.2,0,1,0
		c42.4,0,84.9,0,127.3,0c1,0,1.1,0.3,1.1,1.1c0,42.3,0,84.6,0,126.9c0,0.9-0.2,1.1-1.1,1.1C107.1,129.1,85.9,129.1,64.7,129.1z"/>
	<path class="st1" d="M33.8,77c0-0.4-0.1-0.9-0.1-1.3c0-14.4,0-28.8,0-43.2c0-0.4,0-0.7,0-1.1C33.6,30,32.6,29,31.3,29
		c-1.4,0-2.5,1-2.7,2.4c0,0.4,0,0.7,0,1.1c0,30.3,0,60.5,0,90.8c0,4.9-0.3,5.5-5.4,5.4c-5.5-0.1-10.5-1.8-14.7-5.3
		C3.3,118.8,0.5,113,0.5,106c0-25.8,0-51.5,0-77.3c0-14.1,10.9-26.2,24.9-27.8c1.7-0.2,3.4-0.2,5.1-0.2c5.8,0,11.6,0,17.4,0
		c7.5,0,13.9,6.4,13.9,13.8c0,16.4,0,32.9,0,49.3c0,0.3-0.1,0.6-0.1,0.9c-3.7,0.2-7.4,0-11,0.1c-1.6,0-3.2-0.1-4.8,0.2
		c-5.7,0.8-10,4.7-11.5,10.3C34.3,75.9,34.3,76.6,33.8,77z"/>
	<path class="st2" d="M33.8,77c0.7-5.7,4.8-10.5,10.4-11.9c1.3-0.3,2.7-0.5,4-0.5c4.1,0,8.2,0,12.3,0c0.4,0,0.9-0.2,1.2,0.2
		c0,4.9-0.1,9.7,0,14.6c0.2,6,0,12,0.1,18c0,1.5,0.9,2.7,2.1,2.9c1.5,0.2,2.9-0.9,3-2.5c0-0.3,0-0.6,0-0.8c0-10.3,0-20.6,0-30.9
		c0-0.5,0-1,0.1-1.4c0.3-0.5,0.8-0.4,1.3-0.4c4.3,0.1,8.7-0.1,13,0.1c3,0.1,5.8-0.9,8.2-2.9c2.6-2.2,4.5-4.9,5-8.3
		c0.1-0.4,0-0.9,0.6-1.1c0,0.5,0.1,1,0.1,1.4c0,20.3,0,40.6,0,60.9c0,6.7-4.7,12.8-11.5,14c-0.6,0.1-1.2,0.2-1.9,0.2
		c-11.7,0-23.4,0.1-35.1,0c-4.1,0-7.4-2.1-10-5.2c-2.4-2.9-3.2-6.3-3.2-10c0-10.7,0-21.4,0-32.1C33.6,79.9,33.5,78.4,33.8,77z"/>
	<path class="st2" d="M100.1,0.8c2.7,0,5.5-0.2,8.2,0c4.5,0.4,8.4,2.1,11.9,5c3.5,2.9,6,6.5,7.3,10.9c0.6,1.9,0.9,3.7,0.9,5.7
		c0,27.9,0,55.8,0,83.6c0,4.8-1.3,9.2-4,13.1c-3.7,5.2-8.7,8.4-15.1,9.4c-2.4,0.4-4.7,0.1-7,0.2c-1.2,0-2.1-1.2-2.2-2.6
		c0-0.3,0-0.6,0-1c0-31.1,0-62.2,0-93.2c0-0.5,0-1,0-1.6c-0.3-0.8-0.4-1.5-0.4-2.4c0-8.4,0-16.7,0-25.1C99.7,2.1,99.6,1.4,100.1,0.8
		z"/>
	<path class="st1" d="M100.1,0.8c0,9.3,0,18.7,0,28c0,0.5,0,1,0,1.4C99,29,98,28.6,96.9,29c-1.2,0.5-1.7,1.3-1.7,3
		c0,6.7,0,13.4,0,20.1c-0.3,1.1-0.5,2.3-0.9,3.4c-2.2,6.1-8.4,9.5-13.9,9.2c-4.5-0.3-8.9-0.1-13.4-0.1c-0.1-4.7-0.1-9.5,0-14.2
		c0.1-1.2,0.1-2.4,0.1-3.6c0-10.9,0-21.8,0-32.7c0-0.3-0.1-0.6,0.1-0.9c0.2-5.2,4.6-10.4,10.2-12c0.9-0.3,1.9-0.5,2.8-0.5
		C86.9,0.7,93.5,0.8,100.1,0.8z"/>
	<path class="st3" d="M67.2,13.2c0,11,0,22.1,0,33.1c0,1.4,0.3,2.7-0.2,4.1c0-12.1,0-24.1,0-36.2C67,13.9,67.1,13.6,67.2,13.2z"/>
	<path class="st4" d="M48.5,92.7c-0.5,0.2-0.8,0.2-1.2,0.1C47.6,92.5,47.9,92.7,48.5,92.7z"/>
	<path class="st5" d="M46.3,92.5c-0.4,0.3-0.6,0.2-1,0.2C45.6,92.3,45.9,92.5,46.3,92.5z"/>
	<path class="st5" d="M49.4,92.5c0.4-0.2,0.6-0.2,0.9,0C50,92.7,49.7,92.7,49.4,92.5z"/>
	<path class="st0" d="M118.8,111.1c0,1.2,0,2.5,0,3.7c0,1.4-1,2.4-2.3,2.4c-0.8,0-1.5,0-2.3,0c-1.5,0-2.6-1.1-2.6-2.6
		c0-2.4,0-4.7,0-7.1c0-1.5,1.1-2.5,2.5-2.5c0.8,0,1.7,0,2.5,0c1.2,0,2.1,1,2.2,2.2C118.8,108.4,118.8,109.7,118.8,111.1z"/>
	<path class="st6" d="M90.5,40.1c0.6,0.4,1.1,0.8,1.3,1.5C91.4,41.1,91,40.7,90.5,40.1z"/>
	<path class="st7" d="M70.6,41.2c0.4-0.3,0.8-0.7,1.4-1.1C71.6,40.7,71.2,41.1,70.6,41.2z"/>
	<path class="st8" d="M80.7,36.6c0.3,0,0.6,0,1,0C81.3,36.9,81,36.7,80.7,36.6z"/>
	<path class="st9" d="M79.5,36.9c-0.3,0.2-0.5,0.2-0.8,0C79,36.7,79.2,36.7,79.5,36.9z"/>
	<path class="st9" d="M83.5,36.8c-0.2,0.3-0.5,0.1-0.8,0.2C83,36.6,83.3,36.8,83.5,36.8z"/>
</g>
</svg>
